HIERARCHY
ROOT Hips
{
  OFFSET 5.72205e-005 65.662 3.42586
  CHANNELS 6 Xposition Yposition Zposition Zrotation Xrotation Yrotation
  JOINT Chest
  {
    OFFSET 0 8.7983 -4.7612
    CHANNELS 3 Zrotation Xrotation Yrotation
    JOINT Chest2
    {
      OFFSET 0 8.0291 0.4195
      CHANNELS 3 Zrotation Xrotation Yrotation
      JOINT Chest3
      {
        OFFSET 0 9.9351 -2.2114
        CHANNELS 3 Zrotation Xrotation Yrotation
        JOINT Neck
        {
          OFFSET 0 22.3885 -0.4656
          CHANNELS 3 Zrotation Xrotation Yrotation
          JOINT Head
          {
            OFFSET -0.0001 12.643 3.4389
            CHANNELS 3 Zrotation Xrotation Yrotation
            End Site
            {
              OFFSET 0.0001 17.6655 0.5274
            }
          }
        }
        JOINT LeftCollar
        {
          OFFSET 2.2603 21.606 7.4023
          CHANNELS 3 Zrotation Xrotation Yrotation
          JOINT LeftShoulder
          {
            OFFSET 13.5163 -1.1332 -5.0146
            CHANNELS 3 Zrotation Xrotation Yrotation
            JOINT LeftElbow
            {
              OFFSET -0.0995 -28.05 -0.2431
              CHANNELS 3 Zrotation Xrotation Yrotation
              JOINT LeftWrist
              {
                OFFSET 0.0679 -23.3996 -0.1402
                CHANNELS 3 Zrotation Xrotation Yrotation
                JOINT LeftFinger1
                {
                  OFFSET 0.7932 -9.069 2.5189
                  CHANNELS 3 Zrotation Xrotation Yrotation
                  JOINT LeftFinger11
                  {
                    OFFSET -0.8272 -3.3923 0.5977
                    CHANNELS 3 Zrotation Xrotation Yrotation
                    JOINT LeftFinger12
                    {
                      OFFSET -0.5649 -2.3158 0.4082
                      CHANNELS 3 Zrotation Xrotation Yrotation
                      End Site
                      {
                        OFFSET -0.4919 -1.6479 0.2673
                      }
                    }
                  }
                }
                JOINT LeftFinger2
                {
                  OFFSET 0.9159 -9.2044 0.2193
                  CHANNELS 3 Zrotation Xrotation Yrotation
                  JOINT LeftFinger21
                  {
                    OFFSET 0.0117 -4.1944 -0.0248
                    CHANNELS 3 Zrotation Xrotation Yrotation
                    JOINT LeftFinger22
                    {
                      OFFSET 0.0071 -2.3249 -0.0142
                      CHANNELS 3 Zrotation Xrotation Yrotation
                      End Site
                      {
                        OFFSET -0.1475 -2.0882 0.0028
                      }
                    }
                  }
                }
                JOINT LeftFinger3
                {
                  OFFSET 0.6113 -8.7231 -2.0637
                  CHANNELS 3 Zrotation Xrotation Yrotation
                  JOINT LeftFinger31
                  {
                    OFFSET -0.1927 -3.8059 -0.2383
                    CHANNELS 3 Zrotation Xrotation Yrotation
                    JOINT LeftFinger32
                    {
                      OFFSET -0.1091 -2.1688 -0.1362
                      CHANNELS 3 Zrotation Xrotation Yrotation
                      End Site
                      {
                        OFFSET -0.2358 -1.9176 -0.0906
                      }
                    }
                  }
                }
                JOINT LeftFinger4
                {
                  OFFSET -0.6151 -8.0947 -3.5641
                  CHANNELS 3 Zrotation Xrotation Yrotation
                  JOINT LeftFinger41
                  {
                    OFFSET -0.4882 -2.341 -0.6462
                    CHANNELS 3 Zrotation Xrotation Yrotation
                    JOINT LeftFinger42
                    {
                      OFFSET -0.3575 -1.7167 -0.4742
                      CHANNELS 3 Zrotation Xrotation Yrotation
                      End Site
                      {
                        OFFSET -0.4187 -1.5237 -0.3496
                      }
                    }
                  }
                }
                JOINT LeftFinger0
                {
                  OFFSET -1.42 -1.8761 1.4223
                  CHANNELS 3 Zrotation Xrotation Yrotation
                  JOINT LeftFinger01
                  {
                    OFFSET -1.1471 -3.4929 2.6334
                    CHANNELS 3 Zrotation Xrotation Yrotation
                    JOINT LeftFinger02
                    {
                      OFFSET -0.823 -2.3 1.6571
                      CHANNELS 3 Zrotation Xrotation Yrotation
                      End Site
                      {
                        OFFSET -0.5822 -1.6914 1.1582
                      }
                    }
                  }
                }
              }
            }
          }
        }
        JOINT RightCollar
        {
          OFFSET -2.2603 21.606 7.4023
          CHANNELS 3 Zrotation Xrotation Yrotation
          JOINT RightShoulder
          {
            OFFSET -13.5187 -1.1334 -5.0155
            CHANNELS 3 Zrotation Xrotation Yrotation
            JOINT RightElbow
            {
              OFFSET 0.0994 -28.0499 -0.2431
              CHANNELS 3 Zrotation Xrotation Yrotation
              JOINT RightWrist
              {
                OFFSET -0.0679 -23.3996 -0.1402
                CHANNELS 3 Zrotation Xrotation Yrotation
                JOINT RightFinger1
                {
                  OFFSET -0.7932 -9.0691 2.5189
                  CHANNELS 3 Zrotation Xrotation Yrotation
                  JOINT RightFinger11
                  {
                    OFFSET 0.8272 -3.3923 0.5977
                    CHANNELS 3 Zrotation Xrotation Yrotation
                    JOINT RightFinger12
                    {
                      OFFSET 0.565 -2.3158 0.4082
                      CHANNELS 3 Zrotation Xrotation Yrotation
                      End Site
                      {
                        OFFSET 0.4919 -1.6479 0.2673
                      }
                    }
                  }
                }
                JOINT RightFinger2
                {
                  OFFSET -0.916 -9.2044 0.2193
                  CHANNELS 3 Zrotation Xrotation Yrotation
                  JOINT RightFinger21
                  {
                    OFFSET -0.0117 -4.1944 -0.0248
                    CHANNELS 3 Zrotation Xrotation Yrotation
                    JOINT RightFinger22
                    {
                      OFFSET -0.0071 -2.3249 -0.0142
                      CHANNELS 3 Zrotation Xrotation Yrotation
                      End Site
                      {
                        OFFSET 0.1475 -2.0882 0.0028
                      }
                    }
                  }
                }
                JOINT RightFinger3
                {
                  OFFSET -0.6113 -8.7231 -2.0637
                  CHANNELS 3 Zrotation Xrotation Yrotation
                  JOINT RightFinger31
                  {
                    OFFSET 0.1927 -3.8059 -0.2383
                    CHANNELS 3 Zrotation Xrotation Yrotation
                    JOINT RightFinger32
                    {
                      OFFSET 0.1091 -2.1688 -0.1362
                      CHANNELS 3 Zrotation Xrotation Yrotation
                      End Site
                      {
                        OFFSET 0.2358 -1.9176 -0.0906
                      }
                    }
                  }
                }
                JOINT RightFinger4
                {
                  OFFSET 0.6151 -8.0947 -3.564
                  CHANNELS 3 Zrotation Xrotation Yrotation
                  JOINT RightFinger41
                  {
                    OFFSET 0.4882 -2.341 -0.6462
                    CHANNELS 3 Zrotation Xrotation Yrotation
                    JOINT RightFinger42
                    {
                      OFFSET 0.3574 -1.7166 -0.4742
                      CHANNELS 3 Zrotation Xrotation Yrotation
                      End Site
                      {
                        OFFSET 0.4187 -1.5237 -0.3496
                      }
                    }
                  }
                }
                JOINT RightFinger0
                {
                  OFFSET 1.4199 -1.8761 1.4221
                  CHANNELS 3 Zrotation Xrotation Yrotation
                  JOINT RightFinger01
                  {
                    OFFSET 1.1472 -3.4929 2.6336
                    CHANNELS 3 Zrotation Xrotation Yrotation
                    JOINT RightFinger02
                    {
                      OFFSET 0.8229 -2.3 1.6571
                      CHANNELS 3 Zrotation Xrotation Yrotation
                      End Site
                      {
                        OFFSET 0.5822 -1.6914 1.1582
                      }
                    }
                  }
                }
              }
            }
          }
        }
      }
    }
  }
  JOINT RightHip
  {
    OFFSET -9.412 3.9771 -0.7758
    CHANNELS 3 Zrotation Xrotation Yrotation
    JOINT RightKnee
    {
      OFFSET -0.7531 -40.938 0
      CHANNELS 3 Zrotation Xrotation Yrotation
      JOINT RightAnkle
      {
        OFFSET 0 -40.1986 0
        CHANNELS 3 Zrotation Xrotation Yrotation
        JOINT RightToe
        {
          OFFSET 0 -4.4182 9.239
          CHANNELS 3 Zrotation Xrotation Yrotation
          End Site
          {
            OFFSET 0 0 6.1981
          }
        }
      }
    }
  }
  JOINT LeftHip
  {
    OFFSET 9.4119 3.9773 -0.7758
    CHANNELS 3 Zrotation Xrotation Yrotation
    JOINT LeftKnee
    {
      OFFSET 0.7532 -40.9383 0
      CHANNELS 3 Zrotation Xrotation Yrotation
      JOINT LeftAnkle
      {
        OFFSET 0 -40.1986 0
        CHANNELS 3 Zrotation Xrotation Yrotation
        JOINT LeftToe
        {
          OFFSET 0 -4.4182 9.239
          CHANNELS 3 Zrotation Xrotation Yrotation
          End Site
          {
            OFFSET 0 0 6.1981
          }
        }
      }
    }
  }
}
MOTION
Frames:	6
Frame Time:	0.0333333
1.63328 25.1743 4.4514 -3.39072e-008 21.6509 -3.2488e-008 0.215136 3.55278 -0.277332 0.448835 7.10444 -0.569705 0.448835 7.10445 -0.569706 -7.64663 -11.0934 -17.4125 3.25606e-006 -16.7035 2.18962e-006 -15.1067 13.351 -44.7514 71.6721 7.43234 19.5005 -71.3512 -47.1376 -44.4288 27.8529 -6.95774 25.1746 1.59028e-015 -9.54166e-015 -0 -1.59028e-015 -6.36111e-015 -0 -1.59028e-015 3.18055e-015 3.18055e-015 1.59028e-015 -9.54166e-015 -0 -0.0127943 0.00232401 8.24913e-005 1.59028e-015 1.59028e-014 -3.18055e-015 1.59028e-015 -9.54166e-015 -0 -0.0160321 0.0030016 0.000855095 3.18055e-015 2.8625e-014 3.18055e-015 1.59028e-015 -9.54166e-015 -0 -0.0125504 0.003119 0.00282343 -1.59028e-015 0 -0 1.59028e-015 -9.54166e-015 -0 -1.59028e-015 -6.36111e-015 -0 -1.59028e-015 3.18055e-015 3.18055e-015 0.0482833 -11.0736 12.7392 -65.7383 -23.3583 11.9134 4.88915 -26.2867 1.5934 -4.06557 -4.0475 -15.5724 2.47602e-006 2.39663e-006 -5.48145e-007 -3.53256e-006 2.15824e-006 1.05391e-006 -1.299e-005 4.14887e-006 -2.47679e-006 2.47602e-006 2.39663e-006 -5.48145e-007 0.0129545 0.00231072 -8.78247e-005 -1.33033e-005 -5.61319e-006 1.22908e-005 2.47602e-006 2.39663e-006 -5.48145e-007 0.0163116 0.00303552 -0.000874672 -4.54734e-006 4.51839e-007 -1.53389e-006 2.47602e-006 2.39663e-006 -5.48145e-007 0.0145865 0.00368484 -0.00326141 -1.31455e-005 -4.9274e-006 4.90585e-006 2.47602e-006 2.39663e-006 -5.48145e-007 -3.53256e-006 2.15824e-006 1.05391e-006 -1.299e-005 4.14887e-006 -2.47679e-006 -6.61486 -14.7892 -16.1247 -170.767 82.0012 168.591 17.8612 38.7114 -23.388 1.68168e-006 -4.20804e-006 1.42489e-007 6.57815 -14.7737 16.076 171.059 82.048 -168.873 -17.7901 38.5408 23.3172 4.22721e-007 -4.36119e-008 7.29499e-007 
1.63328 25.1634 4.18765 6.54882e-008 22.3036 -1.87184e-008 0.217184 3.28152 -0.275619 0.451319 6.56192 -0.565112 0.451321 6.56195 -0.565114 -7.57097 -10.8124 -17.2949 -1.90884e-006 -15.9447 1.93281e-007 -15.3977 13.5376 -44.7841 71.6721 7.43235 19.5005 -70.601 -47.0348 -43.8515 27.3085 -6.84408 25.276 1.13654e-005 2.76943e-006 -2.35757e-006 1.02315e-006 1.45107e-007 1.20839e-006 -1.59028e-015 0 3.18055e-015 1.13654e-005 2.76943e-006 -2.35757e-006 -0.012814 0.00232357 9.21477e-005 1.86301e-006 -2.0731e-006 3.54361e-009 1.13654e-005 2.76943e-006 -2.35757e-006 -0.016044 0.00299242 0.000864888 -7.95139e-015 3.18055e-015 -0 1.13654e-005 2.76943e-006 -2.35757e-006 -0.0126128 0.00312175 0.00283656 1.59028e-015 0 -3.18055e-015 1.13654e-005 2.76943e-006 -2.35757e-006 1.02315e-006 1.45107e-007 1.20839e-006 -1.59028e-015 0 3.18055e-015 0.48744 -10.9011 13.3116 -66.0274 -22.9926 11.7803 4.75755 -25.9197 1.52625 -3.55598 -4.10437 -15.2476 -2.47626e-006 3.72608e-006 5.48342e-007 4.05156e-007 -4.52332e-006 -2.6302e-006 6.36111e-015 3.18055e-015 -6.36111e-015 -2.47626e-006 3.72608e-006 5.48342e-007 0.0129701 0.00232258 -9.14341e-005 3.53113e-031 6.36111e-015 -3.18055e-015 -2.47626e-006 3.72608e-006 5.48342e-007 0.0163937 0.00304027 -0.000877445 3.18055e-015 9.54166e-015 3.18055e-015 -2.47626e-006 3.72608e-006 5.48342e-007 0.0145757 0.00366595 -0.00325524 -2.42462e-006 7.76183e-007 -1.59518e-006 -2.47626e-006 3.72608e-006 5.48342e-007 4.05156e-007 -4.52332e-006 -2.6302e-006 6.36111e-015 3.18055e-015 -6.36111e-015 -6.67961 -15.7343 -16.2798 -170.952 81.6497 168.755 17.8733 38.6984 -23.4035 -1.19796e-005 9.07025e-006 9.66906e-007 6.64278 -15.7199 16.2313 171.233 81.6952 -169.026 -17.8022 38.5278 23.3327 1.63887e-006 -4.35556e-006 -3.99843e-007 
1.63327 25.1537 3.92388 -3.55882e-009 22.9562 -9.16828e-008 0.219233 3.01026 -0.273876 0.453836 6.01941 -0.560464 0.453836 6.01943 -0.560465 -7.49591 -10.531 -17.1777 -2.39602e-006 -15.1863 5.56025e-006 -15.6888 13.7245 -44.8158 71.6721 7.43233 19.5005 -69.8538 -46.9269 -43.2774 26.7641 -6.73136 25.3784 1.68394e-006 -4.66929e-006 -2.41371e-006 -1.90056e-006 5.419e-006 -6.55196e-006 4.25616e-007 -2.02032e-006 -3.00024e-006 1.68394e-006 -4.66929e-006 -2.41371e-006 -0.012812 0.00232507 7.41389e-005 -8.32338e-007 -1.94487e-006 -3.58681e-006 1.68394e-006 -4.66929e-006 -2.41371e-006 -0.016047 0.0029882 0.000853836 -5.96012e-007 -1.94776e-006 -4.20846e-006 1.68394e-006 -4.66929e-006 -2.41371e-006 -0.0125696 0.00311715 0.00282129 2.05649e-006 -4.18172e-006 -2.37745e-006 1.68394e-006 -4.66929e-006 -2.41371e-006 -1.90056e-006 5.419e-006 -6.55196e-006 4.25616e-007 -2.02032e-006 -3.00024e-006 0.924514 -10.7241 13.8823 -66.3148 -22.6263 11.6496 4.62687 -25.5525 1.46028 -3.04601 -4.15835 -14.9223 -9.71114e-006 3.53476e-006 9.09113e-006 -3.43363e-006 -4.77324e-006 -4.18432e-006 -7.23455e-006 1.35062e-007 8.54258e-006 -9.71114e-006 3.53476e-006 9.09113e-006 0.0129395 0.00232013 -9.30961e-005 4.95428e-006 -7.06933e-006 -1.0969e-006 -9.71114e-006 3.53476e-006 9.09113e-006 0.0163302 0.00303038 -0.000877306 -3.18378e-006 5.42511e-006 5.68868e-007 -9.71114e-006 3.53476e-006 9.09113e-006 0.0145899 0.00367492 -0.00326541 -3.84086e-006 1.68985e-006 -1.55377e-006 -9.71114e-006 3.53476e-006 9.09113e-006 -3.43363e-006 -4.77324e-006 -4.18432e-006 -7.23455e-006 1.35062e-007 8.54258e-006 -6.74667 -16.6806 -16.4367 -171.124 81.2967 168.906 17.8854 38.6854 -23.4191 7.36947e-007 5.73971e-006 1.19335e-007 6.70995 -16.6651 16.3884 171.393 81.3427 -169.165 -17.8143 38.5148 23.3483 4.21332e-007 -4.30247e-008 7.30218e-007 
1.63326 25.145 3.66007 -3.52992e-008 23.6087 2.65491e-008 0.221285 2.73906 -0.272104 0.45639 5.47704 -0.555764 0.45639 5.47703 -0.555765 -7.42145 -10.2492 -17.0609 -1.20481e-005 -14.4284 -7.49346e-006 -15.9801 13.9115 -44.8465 71.6721 7.43232 19.5005 -69.1099 -46.8139 -42.7067 26.2196 -6.61967 25.4819 1.59028e-015 1.05215e-006 3.18055e-015 -1.02318e-006 2.74051e-006 -1.20788e-006 6.36111e-015 1.59028e-014 3.18055e-015 1.59028e-015 1.05215e-006 3.18055e-015 -0.0128086 0.00232258 8.07157e-005 -1.02299e-006 -1.44135e-007 -1.20792e-006 1.59028e-015 1.05215e-006 3.18055e-015 -0.0160918 0.00300436 0.000862631 -4.77083e-015 1.27222e-014 -6.36111e-015 1.59028e-015 1.05215e-006 3.18055e-015 -0.0125914 0.00312064 0.00282382 4.77083e-015 -3.18055e-015 3.18055e-015 1.59028e-015 1.05215e-006 3.18055e-015 -1.02318e-006 2.74051e-006 -1.20788e-006 6.36111e-015 1.59028e-014 3.18055e-015 1.35942 -10.543 14.4511 -66.6005 -22.2594 11.5212 4.49707 -25.1853 1.3954 -2.53584 -4.20943 -14.5966 -6.11784e-006 -2.84509e-006 5.89118e-006 2.07064e-006 -1.05107e-006 2.08189e-006 -2.47703e-006 3.74755e-007 5.48767e-007 -6.11784e-006 -2.84509e-006 5.89118e-006 0.0129938 0.00232014 -9.95129e-005 -1.51152e-005 -4.8691e-006 1.49612e-005 -6.11784e-006 -2.84509e-006 5.89118e-006 0.0163431 0.00303003 -0.000873369 3.63669e-006 8.65411e-006 -5.34199e-006 -6.11784e-006 -2.84509e-006 5.89118e-006 0.0145652 0.0036641 -0.00325149 -4.54771e-006 2.40167e-006 -1.53338e-006 -6.11784e-006 -2.84509e-006 5.89118e-006 2.07064e-006 -1.05107e-006 2.08189e-006 -2.47703e-006 3.74755e-007 5.48767e-007 -6.81638 -17.6248 -16.5955 -171.282 80.9449 169.043 17.8975 38.6722 -23.4347 7.95139e-015 4.22388e-008 -0 6.77955 -17.6097 16.5473 171.542 80.9901 -169.292 -17.8263 38.5015 23.3638 -7.95139e-016 2.13671e-008 3.18055e-015 
1.63326 25.1374 3.39625 4.19984e-008 24.261 1.56876e-007 0.223341 2.46798 -0.270307 0.458985 4.93487 -0.551019 0.458986 4.93486 -0.551019 -7.3476 -9.96725 -16.9445 1.42857e-006 -13.6711 1.28821e-006 -16.2714 14.0985 -44.8763 71.6721 7.43236 19.5005 -68.3695 -46.6959 -42.1395 25.6752 -6.50897 25.5864 1.02316e-006 -4.00922e-006 1.20767e-006 1.45386e-006 -6.0265e-007 -1.7969e-006 1.26509e-006 -3.69909e-006 5.82302e-007 1.02316e-006 -4.00922e-006 1.20767e-006 -0.0127941 0.00230973 8.58102e-005 4.17009e-007 9.26632e-006 1.79345e-006 1.02316e-006 -4.00922e-006 1.20767e-006 -0.0160287 0.00298497 0.000854587 6.05954e-007 4.12327e-007 -5.85731e-007 1.02316e-006 -4.00922e-006 1.20767e-006 -0.0126034 0.00312851 0.0028302 -6.05963e-007 -1.15599e-006 5.85724e-007 1.02316e-006 -4.00922e-006 1.20767e-006 1.45386e-006 -6.0265e-007 -1.7969e-006 1.26509e-006 -3.69909e-006 5.82302e-007 1.7921 -10.3578 15.018 -66.8845 -21.8919 11.3952 4.3681 -24.818 1.33166 -2.02549 -4.25759 -14.2705 1.10695e-005 4.02177e-006 -6.9889e-006 -1.11282e-006 4.05069e-006 2.65091e-006 2.27211e-006 4.44181e-006 -7.44384e-006 1.10695e-005 4.02177e-006 -6.9889e-006 0.012928 0.00231633 -8.4655e-005 -4.0824e-007 9.78496e-007 2.63084e-006 1.10695e-005 4.02177e-006 -6.9889e-006 0.0163269 0.0030418 -0.000878225 -1.36579e-006 -5.01655e-006 -2.10193e-006 1.10695e-005 4.02177e-006 -6.9889e-006 0.0145572 0.0036771 -0.00326531 8.58959e-006 3.06386e-006 -6.43873e-006 1.10695e-005 4.02177e-006 -6.9889e-006 -1.11282e-006 4.05069e-006 2.65091e-006 2.27211e-006 4.44181e-006 -7.44384e-006 -6.88859 -18.5686 -16.7562 -171.429 80.5927 169.169 17.9096 38.659 -23.4504 -1.26202e-006 2.26398e-006 5.88537e-007 6.85183 -18.553 16.7083 171.679 80.6381 -169.408 -17.8385 38.4881 23.3795 1.11806e-005 1.0481e-005 8.89477e-007 
1.63325 25.1308 3.13244 9.77427e-008 24.9131 -1.21675e-007 0.225399 2.19697 -0.26848 0.461614 4.39284 -0.546216 0.461615 4.39284 -0.546217 -7.27433 -9.68482 -16.8285 -1.5023e-006 -12.9143 -3.63709e-006 -16.5628 14.2858 -44.9052 71.6721 7.43233 19.5005 -67.6325 -46.573 -41.5759 25.1309 -6.39927 25.6919 -5.89626e-007 -7.43869e-007 -4.21446e-006 -0 -3.18055e-015 -0 1.70208e-006 -4.72791e-006 -2.42694e-006 -5.89626e-007 -7.43869e-007 -4.21446e-006 -0.0128352 0.00232255 8.34161e-005 -4.17386e-007 1.97653e-007 -1.79351e-006 -5.89626e-007 -7.43869e-007 -4.21446e-006 -0.0160314 0.00298919 0.000854417 4.34782e-007 -2.32279e-006 -3.007e-006 -5.89626e-007 -7.43869e-007 -4.21446e-006 -0.0126146 0.00314284 0.00283639 -9.36046e-006 -1.99112e-005 -7.60495e-006 -5.89626e-007 -7.43869e-007 -4.21446e-006 -0 -3.18055e-015 -0 1.70208e-006 -4.72791e-006 -2.42694e-006 2.22251 -10.1684 15.5829 -67.1669 -21.524 11.2715 4.24 -24.4506 1.26902 -1.51495 -4.30283 -13.9441 9.54166e-015 0 9.54166e-015 -9.15904e-007 6.87327e-006 -6.87415e-006 6.36111e-015 -1.27222e-014 1.59028e-014 9.54166e-015 0 9.54166e-015 0.0129416 0.00231524 -8.0801e-005 -3.18055e-015 1.59028e-014 -0 9.54166e-015 0 9.54166e-015 0.0162972 0.00302352 -0.000873533 1.76556e-031 -3.18055e-015 3.18055e-015 9.54166e-015 0 9.54166e-015 0.0146434 0.00368784 -0.00327179 2.92616e-006 -2.76927e-006 -5.32095e-006 9.54166e-015 0 9.54166e-015 -9.15904e-007 6.87327e-006 -6.87415e-006 6.36111e-015 -1.27222e-014 1.59028e-014 -6.96333 -19.5124 -16.9189 -171.567 80.2398 169.286 17.9218 38.6457 -23.4661 7.95139e-016 9.54166e-015 -1.59028e-015 6.92655 -19.4968 16.8711 171.809 80.2845 -169.516 -17.8506 38.4746 23.3952 -1.59028e-015 0 -0 
